<?xml version="1.0" encoding="UTF-8" standalone="no"?>
<!DOCTYPE svg PUBLIC "-//W3C//DTD SVG 1.1//EN"
 "http://www.w3.org/Graphics/SVG/1.1/DTD/svg11.dtd">
<!-- Generated by graphviz version 5.0.0 (20220707.1540)
 -->
<!-- Title: StorageDiagram Pages: 1 -->
<svg width="1910pt" height="958pt"
 viewBox="0.00 0.00 1910.27 958.20" xmlns="http://www.w3.org/2000/svg" xmlns:xlink="http://www.w3.org/1999/xlink">
<g id="graph0" class="graph" transform="scale(1 1) rotate(0) translate(4 954.2)">
<title>StorageDiagram</title>
<polygon fill="white" stroke="transparent" points="-4,4 -4,-954.2 1906.27,-954.2 1906.27,4 -4,4"/>
<!-- 6 -->
<g id="node1" class="node">
<title>6</title>
<polygon fill="#f2f2f2" stroke="black" points="0,-487.3 0,-660.9 943.74,-660.9 943.74,-487.3 0,-487.3"/>
<text text-anchor="middle" x="471.87" y="-644.3" font-family="Courier New" font-size="14.00">Store1 &lt;&lt;Contract&gt;&gt;</text>
<polyline fill="none" stroke="black" points="0,-636.1 943.74,-636.1 "/>
<text text-anchor="middle" x="24.8" y="-619.5" font-family="Courier New" font-size="14.00">slot</text>
<polyline fill="none" stroke="black" points="0,-611.3 49.61,-611.3 "/>
<text text-anchor="middle" x="24.8" y="-594.7" font-family="Courier New" font-size="14.00">0</text>
<polyline fill="none" stroke="black" points="0,-586.5 49.61,-586.5 "/>
<text text-anchor="middle" x="24.8" y="-569.9" font-family="Courier New" font-size="14.00">1</text>
<polyline fill="none" stroke="black" points="0,-561.7 49.61,-561.7 "/>
<text text-anchor="middle" x="24.8" y="-545.1" font-family="Courier New" font-size="14.00">2</text>
<polyline fill="none" stroke="black" points="0,-536.9 49.61,-536.9 "/>
<text text-anchor="middle" x="24.8" y="-520.3" font-family="Courier New" font-size="14.00">3</text>
<polyline fill="none" stroke="black" points="0,-512.1 49.61,-512.1 "/>
<text text-anchor="middle" x="24.8" y="-495.5" font-family="Courier New" font-size="14.00">4&#45;59</text>
<polyline fill="none" stroke="black" points="49.61,-487.3 49.61,-636.1 "/>
<text text-anchor="middle" x="496.67" y="-619.5" font-family="Courier New" font-size="14.00">type: &lt;inherited contract&gt;.variable (bytes)</text>
<polyline fill="none" stroke="black" points="49.61,-611.3 943.74,-611.3 "/>
<text text-anchor="middle" x="120.62" y="-594.7" font-family="Courier New" font-size="14.00">unallocated (8)</text>
<polyline fill="none" stroke="black" points="191.63,-586.5 191.63,-611.3 "/>
<text text-anchor="middle" x="279.44" y="-594.7" font-family="Courier New" font-size="14.00">address: admin (20)</text>
<polyline fill="none" stroke="black" points="367.25,-586.5 367.25,-611.3 "/>
<text text-anchor="middle" x="438.26" y="-594.7" font-family="Courier New" font-size="14.00">bool: flag3 (1)</text>
<polyline fill="none" stroke="black" points="509.27,-586.5 509.27,-611.3 "/>
<text text-anchor="middle" x="580.28" y="-594.7" font-family="Courier New" font-size="14.00">bool: flag2 (1)</text>
<polyline fill="none" stroke="black" points="651.29,-586.5 651.29,-611.3 "/>
<text text-anchor="middle" x="722.3" y="-594.7" font-family="Courier New" font-size="14.00">bool: flag1 (1)</text>
<polyline fill="none" stroke="black" points="793.31,-586.5 793.31,-611.3 "/>
<text text-anchor="middle" x="868.52" y="-594.7" font-family="Courier New" font-size="14.00">uint8: index (1)</text>
<polyline fill="none" stroke="black" points="49.61,-586.5 943.74,-586.5 "/>
<text text-anchor="middle" x="264.32" y="-569.9" font-family="Courier New" font-size="14.00">unallocated (12)</text>
<polyline fill="none" stroke="black" points="479.03,-561.7 479.03,-586.5 "/>
<text text-anchor="middle" x="711.04" y="-569.9" font-family="Courier New" font-size="14.00">address: admin2 (20)</text>
<polyline fill="none" stroke="black" points="49.61,-561.7 943.74,-561.7 "/>
<text text-anchor="middle" x="496.63" y="-545.1" font-family="Courier New" font-size="14.00">mapping(address=&gt;uint256): balances (32)</text>
<polyline fill="none" stroke="black" points="49.61,-536.9 943.74,-536.9 "/>
<text text-anchor="middle" x="496.62" y="-520.3" font-family="Courier New" font-size="14.00">uint256: number (32)</text>
<polyline fill="none" stroke="black" points="49.61,-512.1 943.74,-512.1 "/>
<text text-anchor="middle" x="496.33" y="-495.5" font-family="Courier New" font-size="14.00">payments[8]: topPayments (1792)</text>
</g>
<!-- 5 -->
<g id="node6" class="node">
<title>5</title>
<polygon fill="#f2f2f2" stroke="black" points="979.74,-413.3 979.74,-586.9 1281.38,-586.9 1281.38,-413.3 979.74,-413.3"/>
<text text-anchor="middle" x="1130.56" y="-570.3" font-family="Courier New" font-size="14.00">payments[8]: topPayments &lt;&lt;Array&gt;&gt;</text>
<polyline fill="none" stroke="black" points="979.74,-562.1 1281.38,-562.1 "/>
<text text-anchor="middle" x="1019.24" y="-545.5" font-family="Courier New" font-size="14.00">slot</text>
<polyline fill="none" stroke="black" points="979.74,-537.3 1058.74,-537.3 "/>
<text text-anchor="middle" x="1019.24" y="-520.7" font-family="Courier New" font-size="14.00">4&#45;10</text>
<polyline fill="none" stroke="black" points="979.74,-512.5 1058.74,-512.5 "/>
<text text-anchor="middle" x="1019.24" y="-495.9" font-family="Courier New" font-size="14.00">11&#45;18</text>
<polyline fill="none" stroke="black" points="979.74,-487.7 1058.74,-487.7 "/>
<text text-anchor="middle" x="1019.24" y="-471.1" font-family="Courier New" font-size="14.00">18&#45;46</text>
<polyline fill="none" stroke="black" points="979.74,-462.9 1058.74,-462.9 "/>
<text text-anchor="middle" x="1019.24" y="-446.3" font-family="Courier New" font-size="14.00">46&#45;53</text>
<polyline fill="none" stroke="black" points="979.74,-438.1 1058.74,-438.1 "/>
<text text-anchor="middle" x="1019.24" y="-421.5" font-family="Courier New" font-size="14.00">53&#45;60</text>
<polyline fill="none" stroke="black" points="1058.74,-413.3 1058.74,-562.1 "/>
<text text-anchor="middle" x="1169.66" y="-545.5" font-family="Courier New" font-size="14.00">type: variable (bytes)</text>
<polyline fill="none" stroke="black" points="1058.74,-537.3 1280.57,-537.3 "/>
<text text-anchor="middle" x="1169.55" y="-520.7" font-family="Courier New" font-size="14.00">payments (224)</text>
<polyline fill="none" stroke="black" points="1058.74,-512.5 1280.57,-512.5 "/>
<text text-anchor="middle" x="1169.55" y="-495.9" font-family="Courier New" font-size="14.00">payments (224)</text>
<polyline fill="none" stroke="black" points="1058.74,-487.7 1280.57,-487.7 "/>
<text text-anchor="middle" x="1169.25" y="-471.1" font-family="Courier New" font-size="14.00">&#45;&#45;&#45;&#45; (928)</text>
<polyline fill="none" stroke="black" points="1058.74,-462.9 1280.57,-462.9 "/>
<text text-anchor="middle" x="1169.55" y="-446.3" font-family="Courier New" font-size="14.00">payments (224)</text>
<polyline fill="none" stroke="black" points="1058.74,-438.1 1280.57,-438.1 "/>
<text text-anchor="middle" x="1169.55" y="-421.5" font-family="Courier New" font-size="14.00">payments (224)</text>
</g>
<!-- 6&#45;&gt;5 -->
<g id="edge1" class="edge">
<title>6:46&#45;&gt;5</title>
<path fill="none" stroke="black" d="M943.74,-500.1C952.14,-500.1 960.76,-500.1 969.46,-500.1"/>
<polygon fill="black" stroke="black" points="969.71,-503.6 979.71,-500.1 969.71,-496.6 969.71,-503.6"/>
</g>
<!-- 1 -->
<g id="node2" class="node">
<title>1</title>
<polygon fill="#f2f2f2" stroke="black" points="1317.38,-726.5 1317.38,-949.7 1902.27,-949.7 1902.27,-726.5 1317.38,-726.5"/>
<text text-anchor="middle" x="1609.82" y="-933.1" font-family="Courier New" font-size="14.00">payments &lt;&lt;Struct&gt;&gt;</text>
<polyline fill="none" stroke="black" points="1317.38,-924.9 1902.27,-924.9 "/>
<text text-anchor="middle" x="1342.18" y="-908.3" font-family="Courier New" font-size="14.00">slot</text>
<polyline fill="none" stroke="black" points="1317.38,-900.1 1366.99,-900.1 "/>
<text text-anchor="middle" x="1342.18" y="-883.5" font-family="Courier New" font-size="14.00">4</text>
<polyline fill="none" stroke="black" points="1317.38,-875.3 1366.99,-875.3 "/>
<text text-anchor="middle" x="1342.18" y="-858.7" font-family="Courier New" font-size="14.00">5</text>
<polyline fill="none" stroke="black" points="1317.38,-850.5 1366.99,-850.5 "/>
<text text-anchor="middle" x="1342.18" y="-833.9" font-family="Courier New" font-size="14.00">6</text>
<polyline fill="none" stroke="black" points="1317.38,-825.7 1366.99,-825.7 "/>
<text text-anchor="middle" x="1342.18" y="-809.1" font-family="Courier New" font-size="14.00">7</text>
<polyline fill="none" stroke="black" points="1317.38,-800.9 1366.99,-800.9 "/>
<text text-anchor="middle" x="1342.18" y="-784.3" font-family="Courier New" font-size="14.00">8</text>
<polyline fill="none" stroke="black" points="1317.38,-776.1 1366.99,-776.1 "/>
<text text-anchor="middle" x="1342.18" y="-759.5" font-family="Courier New" font-size="14.00">9</text>
<polyline fill="none" stroke="black" points="1317.38,-751.3 1366.99,-751.3 "/>
<text text-anchor="middle" x="1342.18" y="-734.7" font-family="Courier New" font-size="14.00">10</text>
<polyline fill="none" stroke="black" points="1366.99,-726.5 1366.99,-924.9 "/>
<text text-anchor="middle" x="1634.63" y="-908.3" font-family="Courier New" font-size="14.00">type: variable (bytes)</text>
<polyline fill="none" stroke="black" points="1366.99,-900.1 1902.27,-900.1 "/>
<text text-anchor="middle" x="1502.7" y="-883.5" font-family="Courier New" font-size="14.00">unallocated (31)</text>
<polyline fill="none" stroke="black" points="1638.41,-875.3 1638.41,-900.1 "/>
<text text-anchor="middle" x="1769.92" y="-883.5" font-family="Courier New" font-size="14.00">bool: valid (1)</text>
<polyline fill="none" stroke="black" points="1366.99,-875.3 1902.27,-875.3 "/>
<text text-anchor="middle" x="1634.5" y="-858.7" font-family="Courier New" font-size="14.00">uint256: amount (32)</text>
<polyline fill="none" stroke="black" points="1366.99,-850.5 1902.27,-850.5 "/>
<text text-anchor="middle" x="1442.2" y="-833.9" font-family="Courier New" font-size="14.00">unallocated (11)</text>
<polyline fill="none" stroke="black" points="1517.41,-825.7 1517.41,-850.5 "/>
<text text-anchor="middle" x="1617.82" y="-833.9" font-family="Courier New" font-size="14.00">uint8: paymentType (1)</text>
<polyline fill="none" stroke="black" points="1718.24,-825.7 1718.24,-850.5 "/>
<text text-anchor="middle" x="1810.25" y="-833.9" font-family="Courier New" font-size="14.00">address: sender (20)</text>
<polyline fill="none" stroke="black" points="1366.99,-825.7 1902.27,-825.7 "/>
<text text-anchor="middle" x="1634.5" y="-809.1" font-family="Courier New" font-size="14.00">uint256: finalAmount (32)</text>
<polyline fill="none" stroke="black" points="1366.99,-800.9 1902.27,-800.9 "/>
<text text-anchor="middle" x="1488.2" y="-784.3" font-family="Courier New" font-size="14.00">unallocated (12)</text>
<polyline fill="none" stroke="black" points="1609.41,-776.1 1609.41,-800.9 "/>
<text text-anchor="middle" x="1755.82" y="-784.3" font-family="Courier New" font-size="14.00">address: receiver (20)</text>
<polyline fill="none" stroke="black" points="1366.99,-776.1 1902.27,-776.1 "/>
<text text-anchor="middle" x="1634.41" y="-759.5" font-family="Courier New" font-size="14.00">uint256: initialAmount (32)</text>
<polyline fill="none" stroke="black" points="1366.99,-751.3 1902.27,-751.3 "/>
<text text-anchor="middle" x="1498.7" y="-734.7" font-family="Courier New" font-size="14.00">unallocated (31)</text>
<polyline fill="none" stroke="black" points="1630.41,-726.5 1630.41,-751.3 "/>
<text text-anchor="middle" x="1766.32" y="-734.7" font-family="Courier New" font-size="14.00">bool: checked (1)</text>
</g>
<!-- 2 -->
<g id="node3" class="node">
<title>2</title>
<polygon fill="#f2f2f2" stroke="black" points="1317.38,-484.5 1317.38,-707.7 1902.27,-707.7 1902.27,-484.5 1317.38,-484.5"/>
<text text-anchor="middle" x="1609.82" y="-691.1" font-family="Courier New" font-size="14.00">payments &lt;&lt;Struct&gt;&gt;</text>
<polyline fill="none" stroke="black" points="1317.38,-682.9 1902.27,-682.9 "/>
<text text-anchor="middle" x="1342.18" y="-666.3" font-family="Courier New" font-size="14.00">slot</text>
<polyline fill="none" stroke="black" points="1317.38,-658.1 1366.99,-658.1 "/>
<text text-anchor="middle" x="1342.18" y="-641.5" font-family="Courier New" font-size="14.00">11</text>
<polyline fill="none" stroke="black" points="1317.38,-633.3 1366.99,-633.3 "/>
<text text-anchor="middle" x="1342.18" y="-616.7" font-family="Courier New" font-size="14.00">12</text>
<polyline fill="none" stroke="black" points="1317.38,-608.5 1366.99,-608.5 "/>
<text text-anchor="middle" x="1342.18" y="-591.9" font-family="Courier New" font-size="14.00">13</text>
<polyline fill="none" stroke="black" points="1317.38,-583.7 1366.99,-583.7 "/>
<text text-anchor="middle" x="1342.18" y="-567.1" font-family="Courier New" font-size="14.00">14</text>
<polyline fill="none" stroke="black" points="1317.38,-558.9 1366.99,-558.9 "/>
<text text-anchor="middle" x="1342.18" y="-542.3" font-family="Courier New" font-size="14.00">15</text>
<polyline fill="none" stroke="black" points="1317.38,-534.1 1366.99,-534.1 "/>
<text text-anchor="middle" x="1342.18" y="-517.5" font-family="Courier New" font-size="14.00">16</text>
<polyline fill="none" stroke="black" points="1317.38,-509.3 1366.99,-509.3 "/>
<text text-anchor="middle" x="1342.18" y="-492.7" font-family="Courier New" font-size="14.00">17</text>
<polyline fill="none" stroke="black" points="1366.99,-484.5 1366.99,-682.9 "/>
<text text-anchor="middle" x="1634.63" y="-666.3" font-family="Courier New" font-size="14.00">type: variable (bytes)</text>
<polyline fill="none" stroke="black" points="1366.99,-658.1 1902.27,-658.1 "/>
<text text-anchor="middle" x="1502.7" y="-641.5" font-family="Courier New" font-size="14.00">unallocated (31)</text>
<polyline fill="none" stroke="black" points="1638.41,-633.3 1638.41,-658.1 "/>
<text text-anchor="middle" x="1769.92" y="-641.5" font-family="Courier New" font-size="14.00">bool: valid (1)</text>
<polyline fill="none" stroke="black" points="1366.99,-633.3 1902.27,-633.3 "/>
<text text-anchor="middle" x="1634.5" y="-616.7" font-family="Courier New" font-size="14.00">uint256: amount (32)</text>
<polyline fill="none" stroke="black" points="1366.99,-608.5 1902.27,-608.5 "/>
<text text-anchor="middle" x="1442.2" y="-591.9" font-family="Courier New" font-size="14.00">unallocated (11)</text>
<polyline fill="none" stroke="black" points="1517.41,-583.7 1517.41,-608.5 "/>
<text text-anchor="middle" x="1617.82" y="-591.9" font-family="Courier New" font-size="14.00">uint8: paymentType (1)</text>
<polyline fill="none" stroke="black" points="1718.24,-583.7 1718.24,-608.5 "/>
<text text-anchor="middle" x="1810.25" y="-591.9" font-family="Courier New" font-size="14.00">address: sender (20)</text>
<polyline fill="none" stroke="black" points="1366.99,-583.7 1902.27,-583.7 "/>
<text text-anchor="middle" x="1634.5" y="-567.1" font-family="Courier New" font-size="14.00">uint256: finalAmount (32)</text>
<polyline fill="none" stroke="black" points="1366.99,-558.9 1902.27,-558.9 "/>
<text text-anchor="middle" x="1488.2" y="-542.3" font-family="Courier New" font-size="14.00">unallocated (12)</text>
<polyline fill="none" stroke="black" points="1609.41,-534.1 1609.41,-558.9 "/>
<text text-anchor="middle" x="1755.82" y="-542.3" font-family="Courier New" font-size="14.00">address: receiver (20)</text>
<polyline fill="none" stroke="black" points="1366.99,-534.1 1902.27,-534.1 "/>
<text text-anchor="middle" x="1634.41" y="-517.5" font-family="Courier New" font-size="14.00">uint256: initialAmount (32)</text>
<polyline fill="none" stroke="black" points="1366.99,-509.3 1902.27,-509.3 "/>
<text text-anchor="middle" x="1498.7" y="-492.7" font-family="Courier New" font-size="14.00">unallocated (31)</text>
<polyline fill="none" stroke="black" points="1630.41,-484.5 1630.41,-509.3 "/>
<text text-anchor="middle" x="1766.32" y="-492.7" font-family="Courier New" font-size="14.00">bool: checked (1)</text>
</g>
<!-- 3 -->
<g id="node4" class="node">
<title>3</title>
<polygon fill="#f2f2f2" stroke="black" points="1317.38,-242.5 1317.38,-465.7 1902.27,-465.7 1902.27,-242.5 1317.38,-242.5"/>
<text text-anchor="middle" x="1609.82" y="-449.1" font-family="Courier New" font-size="14.00">payments &lt;&lt;Struct&gt;&gt;</text>
<polyline fill="none" stroke="black" points="1317.38,-440.9 1902.27,-440.9 "/>
<text text-anchor="middle" x="1342.18" y="-424.3" font-family="Courier New" font-size="14.00">slot</text>
<polyline fill="none" stroke="black" points="1317.38,-416.1 1366.99,-416.1 "/>
<text text-anchor="middle" x="1342.18" y="-399.5" font-family="Courier New" font-size="14.00">46</text>
<polyline fill="none" stroke="black" points="1317.38,-391.3 1366.99,-391.3 "/>
<text text-anchor="middle" x="1342.18" y="-374.7" font-family="Courier New" font-size="14.00">47</text>
<polyline fill="none" stroke="black" points="1317.38,-366.5 1366.99,-366.5 "/>
<text text-anchor="middle" x="1342.18" y="-349.9" font-family="Courier New" font-size="14.00">48</text>
<polyline fill="none" stroke="black" points="1317.38,-341.7 1366.99,-341.7 "/>
<text text-anchor="middle" x="1342.18" y="-325.1" font-family="Courier New" font-size="14.00">49</text>
<polyline fill="none" stroke="black" points="1317.38,-316.9 1366.99,-316.9 "/>
<text text-anchor="middle" x="1342.18" y="-300.3" font-family="Courier New" font-size="14.00">50</text>
<polyline fill="none" stroke="black" points="1317.38,-292.1 1366.99,-292.1 "/>
<text text-anchor="middle" x="1342.18" y="-275.5" font-family="Courier New" font-size="14.00">51</text>
<polyline fill="none" stroke="black" points="1317.38,-267.3 1366.99,-267.3 "/>
<text text-anchor="middle" x="1342.18" y="-250.7" font-family="Courier New" font-size="14.00">52</text>
<polyline fill="none" stroke="black" points="1366.99,-242.5 1366.99,-440.9 "/>
<text text-anchor="middle" x="1634.63" y="-424.3" font-family="Courier New" font-size="14.00">type: variable (bytes)</text>
<polyline fill="none" stroke="black" points="1366.99,-416.1 1902.27,-416.1 "/>
<text text-anchor="middle" x="1502.7" y="-399.5" font-family="Courier New" font-size="14.00">unallocated (31)</text>
<polyline fill="none" stroke="black" points="1638.41,-391.3 1638.41,-416.1 "/>
<text text-anchor="middle" x="1769.92" y="-399.5" font-family="Courier New" font-size="14.00">bool: valid (1)</text>
<polyline fill="none" stroke="black" points="1366.99,-391.3 1902.27,-391.3 "/>
<text text-anchor="middle" x="1634.5" y="-374.7" font-family="Courier New" font-size="14.00">uint256: amount (32)</text>
<polyline fill="none" stroke="black" points="1366.99,-366.5 1902.27,-366.5 "/>
<text text-anchor="middle" x="1442.2" y="-349.9" font-family="Courier New" font-size="14.00">unallocated (11)</text>
<polyline fill="none" stroke="black" points="1517.41,-341.7 1517.41,-366.5 "/>
<text text-anchor="middle" x="1617.82" y="-349.9" font-family="Courier New" font-size="14.00">uint8: paymentType (1)</text>
<polyline fill="none" stroke="black" points="1718.24,-341.7 1718.24,-366.5 "/>
<text text-anchor="middle" x="1810.25" y="-349.9" font-family="Courier New" font-size="14.00">address: sender (20)</text>
<polyline fill="none" stroke="black" points="1366.99,-341.7 1902.27,-341.7 "/>
<text text-anchor="middle" x="1634.5" y="-325.1" font-family="Courier New" font-size="14.00">uint256: finalAmount (32)</text>
<polyline fill="none" stroke="black" points="1366.99,-316.9 1902.27,-316.9 "/>
<text text-anchor="middle" x="1488.2" y="-300.3" font-family="Courier New" font-size="14.00">unallocated (12)</text>
<polyline fill="none" stroke="black" points="1609.41,-292.1 1609.41,-316.9 "/>
<text text-anchor="middle" x="1755.82" y="-300.3" font-family="Courier New" font-size="14.00">address: receiver (20)</text>
<polyline fill="none" stroke="black" points="1366.99,-292.1 1902.27,-292.1 "/>
<text text-anchor="middle" x="1634.41" y="-275.5" font-family="Courier New" font-size="14.00">uint256: initialAmount (32)</text>
<polyline fill="none" stroke="black" points="1366.99,-267.3 1902.27,-267.3 "/>
<text text-anchor="middle" x="1498.7" y="-250.7" font-family="Courier New" font-size="14.00">unallocated (31)</text>
<polyline fill="none" stroke="black" points="1630.41,-242.5 1630.41,-267.3 "/>
<text text-anchor="middle" x="1766.32" y="-250.7" font-family="Courier New" font-size="14.00">bool: checked (1)</text>
</g>
<!-- 4 -->
<g id="node5" class="node">
<title>4</title>
<polygon fill="#f2f2f2" stroke="black" points="1317.38,-0.5 1317.38,-223.7 1902.27,-223.7 1902.27,-0.5 1317.38,-0.5"/>
<text text-anchor="middle" x="1609.82" y="-207.1" font-family="Courier New" font-size="14.00">payments &lt;&lt;Struct&gt;&gt;</text>
<polyline fill="none" stroke="black" points="1317.38,-198.9 1902.27,-198.9 "/>
<text text-anchor="middle" x="1342.18" y="-182.3" font-family="Courier New" font-size="14.00">slot</text>
<polyline fill="none" stroke="black" points="1317.38,-174.1 1366.99,-174.1 "/>
<text text-anchor="middle" x="1342.18" y="-157.5" font-family="Courier New" font-size="14.00">53</text>
<polyline fill="none" stroke="black" points="1317.38,-149.3 1366.99,-149.3 "/>
<text text-anchor="middle" x="1342.18" y="-132.7" font-family="Courier New" font-size="14.00">54</text>
<polyline fill="none" stroke="black" points="1317.38,-124.5 1366.99,-124.5 "/>
<text text-anchor="middle" x="1342.18" y="-107.9" font-family="Courier New" font-size="14.00">55</text>
<polyline fill="none" stroke="black" points="1317.38,-99.7 1366.99,-99.7 "/>
<text text-anchor="middle" x="1342.18" y="-83.1" font-family="Courier New" font-size="14.00">56</text>
<polyline fill="none" stroke="black" points="1317.38,-74.9 1366.99,-74.9 "/>
<text text-anchor="middle" x="1342.18" y="-58.3" font-family="Courier New" font-size="14.00">57</text>
<polyline fill="none" stroke="black" points="1317.38,-50.1 1366.99,-50.1 "/>
<text text-anchor="middle" x="1342.18" y="-33.5" font-family="Courier New" font-size="14.00">58</text>
<polyline fill="none" stroke="black" points="1317.38,-25.3 1366.99,-25.3 "/>
<text text-anchor="middle" x="1342.18" y="-8.7" font-family="Courier New" font-size="14.00">59</text>
<polyline fill="none" stroke="black" points="1366.99,-0.5 1366.99,-198.9 "/>
<text text-anchor="middle" x="1634.63" y="-182.3" font-family="Courier New" font-size="14.00">type: variable (bytes)</text>
<polyline fill="none" stroke="black" points="1366.99,-174.1 1902.27,-174.1 "/>
<text text-anchor="middle" x="1502.7" y="-157.5" font-family="Courier New" font-size="14.00">unallocated (31)</text>
<polyline fill="none" stroke="black" points="1638.41,-149.3 1638.41,-174.1 "/>
<text text-anchor="middle" x="1769.92" y="-157.5" font-family="Courier New" font-size="14.00">bool: valid (1)</text>
<polyline fill="none" stroke="black" points="1366.99,-149.3 1902.27,-149.3 "/>
<text text-anchor="middle" x="1634.5" y="-132.7" font-family="Courier New" font-size="14.00">uint256: amount (32)</text>
<polyline fill="none" stroke="black" points="1366.99,-124.5 1902.27,-124.5 "/>
<text text-anchor="middle" x="1442.2" y="-107.9" font-family="Courier New" font-size="14.00">unallocated (11)</text>
<polyline fill="none" stroke="black" points="1517.41,-99.7 1517.41,-124.5 "/>
<text text-anchor="middle" x="1617.82" y="-107.9" font-family="Courier New" font-size="14.00">uint8: paymentType (1)</text>
<polyline fill="none" stroke="black" points="1718.24,-99.7 1718.24,-124.5 "/>
<text text-anchor="middle" x="1810.25" y="-107.9" font-family="Courier New" font-size="14.00">address: sender (20)</text>
<polyline fill="none" stroke="black" points="1366.99,-99.7 1902.27,-99.7 "/>
<text text-anchor="middle" x="1634.5" y="-83.1" font-family="Courier New" font-size="14.00">uint256: finalAmount (32)</text>
<polyline fill="none" stroke="black" points="1366.99,-74.9 1902.27,-74.9 "/>
<text text-anchor="middle" x="1488.2" y="-58.3" font-family="Courier New" font-size="14.00">unallocated (12)</text>
<polyline fill="none" stroke="black" points="1609.41,-50.1 1609.41,-74.9 "/>
<text text-anchor="middle" x="1755.82" y="-58.3" font-family="Courier New" font-size="14.00">address: receiver (20)</text>
<polyline fill="none" stroke="black" points="1366.99,-50.1 1902.27,-50.1 "/>
<text text-anchor="middle" x="1634.41" y="-33.5" font-family="Courier New" font-size="14.00">uint256: initialAmount (32)</text>
<polyline fill="none" stroke="black" points="1366.99,-25.3 1902.27,-25.3 "/>
<text text-anchor="middle" x="1498.7" y="-8.7" font-family="Courier New" font-size="14.00">unallocated (31)</text>
<polyline fill="none" stroke="black" points="1630.41,-0.5 1630.41,-25.3 "/>
<text text-anchor="middle" x="1766.32" y="-8.7" font-family="Courier New" font-size="14.00">bool: checked (1)</text>
</g>
<!-- 5&#45;&gt;1 -->
<g id="edge2" class="edge">
<title>5:17&#45;&gt;1</title>
<path fill="none" stroke="black" d="M1281.38,-525.1C1368.2,-525.1 1262.7,-649.66 1317.38,-717.1 1317.87,-717.7 1318.36,-718.29 1318.85,-718.89"/>
<polygon fill="black" stroke="black" points="1316.22,-721.2 1325.43,-726.43 1321.49,-716.59 1316.22,-721.2"/>
</g>
<!-- 5&#45;&gt;2 -->
<g id="edge3" class="edge">
<title>5:18&#45;&gt;2</title>
<path fill="none" stroke="black" d="M1281.38,-500.1C1289.9,-500.1 1298.49,-500.4 1307.12,-500.97"/>
<polygon fill="black" stroke="black" points="1307.03,-504.48 1317.27,-501.77 1307.58,-497.5 1307.03,-504.48"/>
</g>
<!-- 5&#45;&gt;3 -->
<g id="edge4" class="edge">
<title>5:20&#45;&gt;3</title>
<path fill="none" stroke="black" d="M1281.38,-450.1C1289.9,-450.1 1298.49,-449.8 1307.12,-449.23"/>
<polygon fill="black" stroke="black" points="1307.58,-452.7 1317.27,-448.43 1307.03,-445.72 1307.58,-452.7"/>
</g>
<!-- 5&#45;&gt;4 -->
<g id="edge5" class="edge">
<title>5:21&#45;&gt;4</title>
<path fill="none" stroke="black" d="M1281.38,-426.1C1368.64,-426.1 1262.46,-300.9 1317.38,-233.1 1317.87,-232.5 1318.36,-231.91 1318.85,-231.31"/>
<polygon fill="black" stroke="black" points="1321.49,-233.61 1325.43,-223.77 1316.22,-229 1321.49,-233.61"/>
</g>
</g>
</svg>
